<svg id="Layer_1" data-name="Layer 1" xmlns="http://www.w3.org/2000/svg" viewBox="0 0 127.34 72.34"><defs><style>.cls-1{fill:#333;}.cls-2{fill:#4d4d4d;}</style></defs><path class="cls-1" d="M127.76,74.83a12.73,12.73,0,0,0-.59-2.6c-.29-.84-.73-1.32-1.3-1.42a2.28,2.28,0,0,0-2.25.9,9,9,0,0,0-1.62,3,21.24,21.24,0,0,0-.91,4.15,23.89,23.89,0,0,0-.16,4.26,12.35,12.35,0,0,0,.63,3.43c.35,1,.86,1.48,1.54,1.58s1.33-.26,1.94-1.1a12.7,12.7,0,0,0,1.58-3.24,26.11,26.11,0,0,0,1-4.38,18,18,0,0,0,.12-4.62m-2.05-8a4,4,0,0,1,1.93,1A7.84,7.84,0,0,1,129,69.62a2.34,2.34,0,0,1,1.58-.79,3.9,3.9,0,0,1,1.82.28,3.3,3.3,0,0,1,1.42,1.11,2.25,2.25,0,0,1,.39,1.77c-.21,1-.41,2.13-.59,3.55s-.3,2.79-.35,4.11A19,19,0,0,0,133.4,83c.13.95.41,1.42.83,1.42s.7-.41,1.15-1.22a30.75,30.75,0,0,0,1.34-2.88c.45-1.11.85-2.21,1.22-3.32a18.73,18.73,0,0,0,.71-2.52,1.65,1.65,0,0,1,.79-1.07,1.58,1.58,0,0,1,1.07-.16,1.46,1.46,0,0,1,.86.6,1.2,1.2,0,0,1,.12,1.18c-.1.32-.27.91-.51,1.78s-.54,1.82-.91,2.88-.8,2.14-1.3,3.27A15,15,0,0,1,137,86a7.32,7.32,0,0,1-2.21,2,3.28,3.28,0,0,1-2.64.32,5,5,0,0,1-3.31-2.76A13,13,0,0,1,127.13,89a6.44,6.44,0,0,1-2.84,2.25,5.22,5.22,0,0,1-2.92.24,6,6,0,0,1-3.63-2.85,14.08,14.08,0,0,1-1.82-5.13,21.57,21.57,0,0,1-.08-6.07,18.22,18.22,0,0,1,1.62-5.69,10.28,10.28,0,0,1,3.28-4A6.23,6.23,0,0,1,125.71,66.86Zm-10.58-5.68a2.55,2.55,0,0,1-.2,1.62,3.93,3.93,0,0,1-1.06,1.34,6.44,6.44,0,0,1-1.66,1,8.37,8.37,0,0,1-2,.56,8.91,8.91,0,0,1-3.87-.4A2.79,2.79,0,0,1,104.24,63a1.1,1.1,0,0,1-.08-.47v-.24a3.57,3.57,0,0,1,1.46-2.44A7.59,7.59,0,0,1,109,58.42h.23a1.56,1.56,0,0,1,0,.35,2.47,2.47,0,0,0,0,.36,3.39,3.39,0,0,1-.94,1.85,6.77,6.77,0,0,1-1.66,1.3,5.14,5.14,0,0,1-1.58.6c-.47.07-.74,0-.79-.36v-.24c0-.05,0-.08,0-.08s0,0,0-.07a16,16,0,0,0,.43-2.57,12.79,12.79,0,0,0,0-2.29,5.89,5.89,0,0,0-.31-1.62c-.16-.42-.4-.63-.71-.63s-.59.24-.83.71a8.17,8.17,0,0,0-.59,2.37c-.16,1.11-.28,2.55-.36,4.34s-.14,4-.2,6.63c1.21-.1,2.44-.17,3.67-.2l3,0a4.51,4.51,0,0,1,1.42.08,2.94,2.94,0,0,1,1.23.59,3.38,3.38,0,0,1,.83,1.07A2.13,2.13,0,0,1,112,72c-.21,1-.4,2.13-.59,3.55s-.3,2.79-.35,4.11a18.85,18.85,0,0,0,.12,3.39c.13.95.43,1.42.9,1.42s.7-.41,1.15-1.22a23.3,23.3,0,0,0,1.3-2.88c.42-1.11.82-2.21,1.18-3.32a18.73,18.73,0,0,0,.71-2.52,1.68,1.68,0,0,1,.79-1.07,1.59,1.59,0,0,1,1.07-.16,1.51,1.51,0,0,1,.87.6,1.26,1.26,0,0,1,.12,1.18c-.11.32-.28.91-.52,1.78s-.54,1.82-.9,2.88S117,81.87,116.51,83a15.42,15.42,0,0,1-1.73,3,7.7,7.7,0,0,1-2.17,2,3.2,3.2,0,0,1-2.61.32A4.87,4.87,0,0,1,107,86a9.47,9.47,0,0,1-1.06-4,33.47,33.47,0,0,1,0-4.89c.13-1.74.19-3.45.19-5.13-.63,0-1.32,0-2.09,0l-2.33.12q-.08,3.31,0,7.38t.11,9a3.35,3.35,0,0,1-.94,2.41,4.86,4.86,0,0,1-2.1,1.34,3.5,3.5,0,0,1-2.09.08,1.22,1.22,0,0,1-.94-1.3l.55-18.94a3.23,3.23,0,0,1-1.7-.52,1.35,1.35,0,0,1-.63-1,1.12,1.12,0,0,1,.55-1,3.56,3.56,0,0,1,1.86-.51q.24-4.74.67-7.89a20.14,20.14,0,0,1,1.26-5.09,5.92,5.92,0,0,1,2.13-2.77,7.05,7.05,0,0,1,3.28-1,3.94,3.94,0,0,1,2.21.47,5.55,5.55,0,0,1,1.73,1.46,8.13,8.13,0,0,1,1.15,2,5.32,5.32,0,0,1,.43,2,7.23,7.23,0,0,1,4,.43A3,3,0,0,1,115.13,61.18ZM85.3,74.83a12.73,12.73,0,0,0-.59-2.6c-.29-.84-.73-1.32-1.31-1.42a2.29,2.29,0,0,0-2.25.9,9.15,9.15,0,0,0-1.61,3,21.24,21.24,0,0,0-.91,4.15,23,23,0,0,0-.16,4.26,12.35,12.35,0,0,0,.63,3.43c.34,1,.86,1.48,1.54,1.58s1.33-.26,1.93-1.1a12.08,12.08,0,0,0,1.58-3.24,25.15,25.15,0,0,0,1-4.38A18,18,0,0,0,85.3,74.83Zm-2-8a4,4,0,0,1,1.93,1,7.84,7.84,0,0,1,1.38,1.73,2.34,2.34,0,0,1,1.58-.79,3.84,3.84,0,0,1,1.81.28,3.33,3.33,0,0,1,1.43,1.11A2.29,2.29,0,0,1,91.77,72c-.21,1-.41,2.13-.59,3.55s-.3,2.79-.36,4.11A19.83,19.83,0,0,0,90.94,83c.13.95.41,1.42.83,1.42s.7-.41,1.14-1.22a28.3,28.3,0,0,0,1.35-2.88c.44-1.11.85-2.21,1.22-3.32a20.38,20.38,0,0,0,.71-2.52A1.65,1.65,0,0,1,97,73.45,1.56,1.56,0,0,1,98,73.29a1.45,1.45,0,0,1,.87.6A1.2,1.2,0,0,1,99,75.07c-.1.32-.28.91-.51,1.78s-.54,1.82-.91,2.88-.8,2.14-1.3,3.27a15,15,0,0,1-1.74,3,7.44,7.44,0,0,1-2.21,2,3.28,3.28,0,0,1-2.64.32,5,5,0,0,1-3.32-2.76A13,13,0,0,1,84.67,89a6.44,6.44,0,0,1-2.84,2.25,5.25,5.25,0,0,1-2.93.24,6.06,6.06,0,0,1-3.63-2.85,14.07,14.07,0,0,1-1.81-5.13,21.21,21.21,0,0,1-.08-6.07A18,18,0,0,1,75,71.75a10.26,10.26,0,0,1,3.27-4A6.26,6.26,0,0,1,83.25,66.86ZM54.12,37.74c1,0,2.17,0,3.67.16a46.76,46.76,0,0,1,4.78.59,48.33,48.33,0,0,1,5.13,1.18,21.15,21.15,0,0,1,4.65,1.93,11.5,11.5,0,0,1,3.36,2.85A6,6,0,0,1,77,48.31,5.52,5.52,0,0,1,74.72,53a8.75,8.75,0,0,1-5.36,1.7,4.54,4.54,0,0,1-.72-.12,11.67,11.67,0,0,1-1.14-.32,4.92,4.92,0,0,1-1-.47.8.8,0,0,1-.43-.67,1.48,1.48,0,0,1,.91-1.3,10.05,10.05,0,0,1,2-.87,17.19,17.19,0,0,0,2-.79c.61-.29.91-.67.91-1.15,0-.89-.64-1.65-1.93-2.29a20.37,20.37,0,0,0-4.66-1.53,45.37,45.37,0,0,0-5.72-.87c-2-.19-3.68-.28-5.05-.28s-3,.09-5.21.28-4.49.47-7,.87-5,.92-7.61,1.57a46.28,46.28,0,0,0-7,2.37,19.86,19.86,0,0,0-5.21,3.2,6,6,0,0,0-2.21,4.1c-.1.9.48,1.78,1.74,2.65a25.07,25.07,0,0,0,5,2.52q3.08,1.23,7,2.37t7.85,2.21q3.95,1.07,7.5,2.13t5.92,2c1.52.64,3.17,1.41,4.93,2.33A32.87,32.87,0,0,1,65,75.82a17.35,17.35,0,0,1,3.79,4,8.56,8.56,0,0,1,1.5,4.9A7.24,7.24,0,0,1,69,89a9.77,9.77,0,0,1-3.36,2.92,16.18,16.18,0,0,1-4.77,1.66,29.55,29.55,0,0,1-5.53.51A62.9,62.9,0,0,1,43,92.87a67,67,0,0,1-11.72-3.52,37.94,37.94,0,0,1-4.34-2,23.11,23.11,0,0,1-4.18-2.84A16.69,16.69,0,0,1,19.55,81a7.71,7.71,0,0,1-1.26-4.3,6,6,0,0,1,.51-2.37,6.46,6.46,0,0,1,1.5-2.13,7.67,7.67,0,0,1,2.41-1.54A8.65,8.65,0,0,1,26,70a5.86,5.86,0,0,1,.95.08,2.42,2.42,0,0,1,1,.31.67.67,0,0,1,.39.56c0,.21-.26.47-.79.78q-1.34.8-2.4,1.35a12.84,12.84,0,0,0-1.82,1.1,3.93,3.93,0,0,0-1.1,1.15,2.58,2.58,0,0,0-.36,1.38A4,4,0,0,0,22.59,79a10.47,10.47,0,0,0,1.86,2,18.06,18.06,0,0,0,2.25,1.66,17.78,17.78,0,0,0,2,1.1,53.33,53.33,0,0,0,12.23,4.46,57.24,57.24,0,0,0,13.18,1.54c.79,0,1.83,0,3.12-.08a19.23,19.23,0,0,0,3.83-.55,9.65,9.65,0,0,0,3.23-1.42A3.19,3.19,0,0,0,65.65,85a5.63,5.63,0,0,0-2.25-4.3,26.49,26.49,0,0,0-5.53-3.55,50.05,50.05,0,0,0-7-2.8q-3.72-1.19-6.55-2-8.22-2.37-14-4.19a66.12,66.12,0,0,1-9.4-3.59,16.27,16.27,0,0,1-5.21-3.67,6.15,6.15,0,0,1-1.46-4.5,11.52,11.52,0,0,1,2.49-6.55,20.4,20.4,0,0,1,5.76-4.89,38.61,38.61,0,0,1,7.86-3.43,74.14,74.14,0,0,1,8.68-2.21,83.26,83.26,0,0,1,8.32-1.19Q51.36,37.74,54.12,37.74Z" transform="translate(-14.25 -37.74)"/><path class="cls-2" d="M103.17,110l-.09-.79a2,2,0,0,0,.49.08.94.94,0,0,0,.45-.1.7.7,0,0,0,.28-.26,3.82,3.82,0,0,0,.26-.64s0-.12.08-.21l-1.91-5h.91l1,2.9c.14.37.26.76.37,1.17a11.52,11.52,0,0,1,.35-1.14l1.07-2.93h.86l-1.91,5.12a8.39,8.39,0,0,1-.48,1.14,1.64,1.64,0,0,1-.52.62,1.25,1.25,0,0,1-.7.19,1.75,1.75,0,0,1-.56-.1M100,108v-5h.77v.77a2,2,0,0,1,.54-.71,1,1,0,0,1,.55-.17,1.7,1.7,0,0,1,.88.27l-.31.79a1.2,1.2,0,0,0-.62-.18.84.84,0,0,0-.5.17.93.93,0,0,0-.31.47,3.12,3.12,0,0,0-.14,1V108Zm-4.75-3H98a1.77,1.77,0,0,0-.32-1,1.31,1.31,0,0,0-1.06-.49,1.33,1.33,0,0,0-1,.39A1.54,1.54,0,0,0,95.22,105Zm2.8,1.37.88.12a2.12,2.12,0,0,1-.77,1.2,2.32,2.32,0,0,1-1.44.42,2.3,2.3,0,0,1-1.74-.68,2.65,2.65,0,0,1-.65-1.9,2.8,2.8,0,0,1,.65-2,2.21,2.21,0,0,1,1.7-.7,2.12,2.12,0,0,1,1.64.69,2.69,2.69,0,0,1,.64,1.93v.22H95.18a1.93,1.93,0,0,0,.46,1.27,1.42,1.42,0,0,0,1,.44,1.25,1.25,0,0,0,.8-.25A1.53,1.53,0,0,0,98,106.41ZM89.73,108v-7h.86v4l2-2h1.1l-1.92,1.87L93.9,108H92.85l-1.67-2.57-.59.58v2Zm-2.17-2.52a6.37,6.37,0,0,1-1.4.32,3.38,3.38,0,0,0-.75.17.73.73,0,0,0-.34.28.7.7,0,0,0-.12.4.73.73,0,0,0,.26.56,1.15,1.15,0,0,0,.76.23,1.82,1.82,0,0,0,.88-.21,1.38,1.38,0,0,0,.56-.59,2.08,2.08,0,0,0,.14-.85Zm.06,1.89a3.08,3.08,0,0,1-.91.57,2.5,2.5,0,0,1-.95.17,1.83,1.83,0,0,1-1.27-.4,1.34,1.34,0,0,1-.45-1,1.41,1.41,0,0,1,.61-1.16,2.06,2.06,0,0,1,.62-.28c.16,0,.42-.08.76-.13a8,8,0,0,0,1.52-.29c0-.12,0-.19,0-.22a.93.93,0,0,0-.25-.73,1.39,1.39,0,0,0-1-.29,1.52,1.52,0,0,0-.89.21,1.24,1.24,0,0,0-.43.75l-.83-.12a2.06,2.06,0,0,1,.37-.86,1.7,1.7,0,0,1,.76-.51,3.33,3.33,0,0,1,1.14-.18,3.14,3.14,0,0,1,1.06.15,1.2,1.2,0,0,1,.86,1,6,6,0,0,1,0,.78v1.13a14.35,14.35,0,0,0,0,1.51,2.14,2.14,0,0,0,.21.6h-.89A1.94,1.94,0,0,1,87.62,107.41Zm-7.91-1.92a2.52,2.52,0,0,0,.25,1.3A1.22,1.22,0,0,0,82,107a2.83,2.83,0,0,0,0-2.9,1.21,1.21,0,0,0-1-.47,1.22,1.22,0,0,0-1,.48A2.15,2.15,0,0,0,79.71,105.49Zm0,2.55h-.79v-7h.85v2.48a1.69,1.69,0,0,1,1.38-.67,2.05,2.05,0,0,1,.88.19,1.77,1.77,0,0,1,.68.52,2.54,2.54,0,0,1,.42.82,3.4,3.4,0,0,1,.15,1,2.86,2.86,0,0,1-.64,2,2,2,0,0,1-1.53.7,1.61,1.61,0,0,1-1.4-.74Zm-6.52-1.49-1.56-1.94a3,3,0,0,0-.93.76,1.2,1.2,0,0,0-.25.7,1.44,1.44,0,0,0,.34.87,1.11,1.11,0,0,0,1,.45,1.55,1.55,0,0,0,.79-.23A1.94,1.94,0,0,0,73.2,106.55ZM72,103.61a2.13,2.13,0,0,0,.72-.58.94.94,0,0,0,.17-.54.81.81,0,0,0-.23-.59.76.76,0,0,0-.56-.22.79.79,0,0,0-.58.22.75.75,0,0,0-.23.55.93.93,0,0,0,.08.34,2.23,2.23,0,0,0,.25.38Zm1.75,3.61a3,3,0,0,1-.92.7,2.58,2.58,0,0,1-1.08.23,2.13,2.13,0,0,1-1.69-.72,1.93,1.93,0,0,1-.51-1.31A1.8,1.8,0,0,1,70,105a3.49,3.49,0,0,1,1.23-.91,4.71,4.71,0,0,1-.63-.87,1.63,1.63,0,0,1-.16-.65,1.45,1.45,0,0,1,.5-1.09,1.71,1.71,0,0,1,1.23-.46,1.61,1.61,0,0,1,1.17.43,1.44,1.44,0,0,1,.45,1c0,.67-.44,1.23-1.32,1.7l1.26,1.58a4.08,4.08,0,0,0,.34-1l.88.19a4.67,4.67,0,0,1-.62,1.49,4.92,4.92,0,0,0,1.08,1.06l-.57.68A5.1,5.1,0,0,1,73.74,107.22ZM63,102.39l.62-1.33h1.13l-1,1.33ZM62.31,105h2.81a1.69,1.69,0,0,0-.33-1,1.29,1.29,0,0,0-1.05-.49,1.37,1.37,0,0,0-1,.39A1.58,1.58,0,0,0,62.31,105Zm2.8,1.37.88.12a2.23,2.23,0,0,1-.77,1.2,2.36,2.36,0,0,1-1.44.42,2.32,2.32,0,0,1-1.75-.68,2.65,2.65,0,0,1-.64-1.9,2.8,2.8,0,0,1,.65-2,2.2,2.2,0,0,1,1.69-.7,2.14,2.14,0,0,1,1.65.69,2.74,2.74,0,0,1,.64,1.93,2,2,0,0,1,0,.22H62.26a1.93,1.93,0,0,0,.47,1.27,1.4,1.4,0,0,0,1.05.44,1.27,1.27,0,0,0,.8-.25A1.59,1.59,0,0,0,65.11,106.41ZM59.18,108v-4.37h-.76V103h.76v-.54a2.3,2.3,0,0,1,.09-.75,1.08,1.08,0,0,1,.43-.54,1.58,1.58,0,0,1,.86-.2,4.71,4.71,0,0,1,.8.08l-.13.75a2.92,2.92,0,0,0-.5,0,.75.75,0,0,0-.55.17.87.87,0,0,0-.16.62V103h1v.66H60V108Zm-2.38-2.52a6.23,6.23,0,0,1-1.4.32,3.53,3.53,0,0,0-.75.17.75.75,0,0,0-.33.28.73.73,0,0,0,.14,1,1.1,1.1,0,0,0,.75.23,1.82,1.82,0,0,0,.88-.21,1.27,1.27,0,0,0,.56-.59,1.92,1.92,0,0,0,.14-.85Zm.07,1.89A3.25,3.25,0,0,1,56,108a2.45,2.45,0,0,1-.94.17,1.84,1.84,0,0,1-1.28-.4,1.34,1.34,0,0,1-.45-1,1.39,1.39,0,0,1,.17-.67,1.49,1.49,0,0,1,.44-.49,2.18,2.18,0,0,1,.62-.28c.17,0,.42-.08.76-.13a7.85,7.85,0,0,0,1.52-.29c0-.12,0-.19,0-.22a.89.89,0,0,0-.25-.73,1.37,1.37,0,0,0-1-.29,1.52,1.52,0,0,0-.89.21,1.34,1.34,0,0,0-.43.75l-.83-.12a2.2,2.2,0,0,1,.37-.86,1.7,1.7,0,0,1,.76-.51,3.35,3.35,0,0,1,1.15-.18,3.07,3.07,0,0,1,1,.15,1.2,1.2,0,0,1,.86,1,4.57,4.57,0,0,1,0,.78v1.13a14.35,14.35,0,0,0,.05,1.51,2.14,2.14,0,0,0,.21.6H57A1.72,1.72,0,0,1,56.87,107.41ZM52,106.2l.84.12a2.16,2.16,0,0,1-.7,1.34,2.05,2.05,0,0,1-1.39.49,2.14,2.14,0,0,1-1.66-.67,2.75,2.75,0,0,1-.63-1.94,3.49,3.49,0,0,1,.27-1.42,1.83,1.83,0,0,1,.82-.91,2.39,2.39,0,0,1,1.2-.31,2.1,2.1,0,0,1,1.34.41,1.91,1.91,0,0,1,.67,1.18l-.83.13a1.32,1.32,0,0,0-.42-.77,1.07,1.07,0,0,0-.72-.25,1.32,1.32,0,0,0-1,.46,2.18,2.18,0,0,0-.41,1.46,2.23,2.23,0,0,0,.39,1.47,1.26,1.26,0,0,0,1,.46,1.2,1.2,0,0,0,.84-.31A1.53,1.53,0,0,0,52,106.2Z" transform="translate(-14.25 -37.74)"/></svg>